<svg width="73" height="57" viewBox="0 0 73 57" fill="none" xmlns="http://www.w3.org/2000/svg">
<path d="M63.6319 16.8142L66.1819 16.821V16.8142H63.6319ZM9.3679 16.8142H6.8179V16.821L9.3679 16.8142ZM60.6399 22.244L58.6917 23.893L58.9773 24.233L59.3649 24.454L60.6399 22.244ZM59.7151 17.943C59.1695 17.5426 58.4873 17.3754 57.8184 17.478C57.1496 17.5807 56.5489 17.9448 56.1485 18.4904C55.7481 19.0359 55.5809 19.7182 55.6835 20.3871C55.7862 21.0559 56.1504 21.6566 56.6959 22.057L59.7151 17.943ZM16.3039 22.057C16.574 21.8588 16.8025 21.6092 16.9762 21.3227C17.1499 21.0362 17.2654 20.7183 17.3163 20.3871C17.3671 20.0559 17.3522 19.7179 17.2724 19.3925C17.1926 19.0671 17.0495 18.7605 16.8513 18.4904C16.6531 18.2203 16.4035 17.9918 16.117 17.8181C15.8305 17.6444 15.5126 17.5289 15.1814 17.478C14.8502 17.4272 14.5122 17.4421 14.1868 17.5219C13.8614 17.6017 13.5548 17.7448 13.2847 17.943L16.3039 22.057ZM36.4999 5.2304C33.8751 5.2304 32.3859 5.3698 31.2095 5.516C30.0535 5.6588 29.4687 5.7608 28.3603 5.7608V10.8608C29.8563 10.8608 30.8253 10.701 31.8283 10.5786C32.8143 10.4562 34.0927 10.3304 36.4999 10.3304V5.2304ZM36.4999 10.3304C38.9071 10.3304 40.1889 10.4562 41.1681 10.5786C42.1745 10.701 43.1401 10.8608 44.6395 10.8608V5.7608C43.5311 5.7608 42.9463 5.6588 41.7903 5.516C40.0349 5.30628 38.2677 5.21088 36.4999 5.2304V10.3304ZM44.6395 10.8642C45.3637 10.8642 46.0403 10.6568 46.5265 10.4766C47.0569 10.2794 47.6043 10.021 48.1313 9.749C49.1683 9.2152 50.3719 8.5012 51.4735 7.8654C52.6295 7.2024 53.7175 6.5972 54.6933 6.1552C55.7405 5.6792 56.3389 5.55 56.5769 5.55V0.449997C55.1897 0.449997 53.7549 0.983797 52.5955 1.504C51.3441 2.09342 50.121 2.74127 48.9303 3.4454C47.7267 4.139 46.6931 4.7544 45.7955 5.2134C45.3558 5.44006 45.009 5.59986 44.7551 5.6928C44.4593 5.8016 44.4593 5.7608 44.6395 5.7608V10.8642ZM56.5769 5.55C57.7499 5.55 58.8719 5.9002 59.6607 6.5802C60.3815 7.199 61.0819 8.3142 61.0819 10.4392H66.1819C66.1819 7.0392 64.9851 4.4348 62.9893 2.7144C61.0649 1.0586 58.6645 0.449997 56.5769 0.449997V5.55ZM61.0819 10.4392V16.8142H66.1819V10.4392H61.0819ZM28.3603 5.7642C28.5405 5.7642 28.5405 5.8016 28.2447 5.6962C27.8892 5.55601 27.5418 5.39596 27.2043 5.2168C26.3067 4.7544 25.2731 4.139 24.0695 3.4488C22.9135 2.7824 21.6351 2.0616 20.4043 1.5074C19.2483 0.983797 17.8101 0.449997 16.4229 0.449997V5.55C16.6609 5.55 17.2593 5.6826 18.3065 6.1552C19.2823 6.5972 20.3737 7.2024 21.5263 7.8654C22.6279 8.5012 23.8315 9.2152 24.8685 9.749C25.3955 10.021 25.9429 10.2794 26.4733 10.4766C26.9595 10.6568 27.6361 10.8642 28.3603 10.8642V5.7642ZM16.4229 0.449997C14.3353 0.449997 11.9349 1.0586 10.0105 2.7144C8.0147 4.4314 6.8179 7.0392 6.8179 10.4358H11.9179C11.9179 8.3108 12.6183 7.199 13.3391 6.5802C14.1279 5.9002 15.2533 5.55 16.4229 5.55V0.449997ZM6.8179 10.4392V16.8142H11.9179V10.4358L6.8179 10.4392ZM36.4999 56.55C41.3653 56.55 48.5359 55.581 54.5879 52.7964C60.6535 50.0084 66.1819 45.0682 66.1819 37H61.0819C61.0819 42.2122 57.6581 45.772 52.4595 48.1656C47.2609 50.5592 40.8587 51.45 36.4999 51.45V56.55ZM62.5847 20.5984C61.7333 19.607 60.7704 18.7138 59.7151 17.943L56.6959 22.057C57.5074 22.6622 58.1726 23.2708 58.6917 23.8896L62.5847 20.5984ZM61.0819 16.804C61.0819 17.4772 60.9425 18.878 60.6127 19.847C60.4257 20.3876 60.3203 20.374 60.5107 20.221C60.7079 20.071 60.9407 19.9748 61.1863 19.9421C61.4319 19.9093 61.6819 19.941 61.9115 20.034L59.3649 24.454C59.9769 24.8076 60.7317 25.066 61.5749 25.0218C62.4419 24.9776 63.1593 24.6342 63.7033 24.199C64.6791 23.417 65.1721 22.2746 65.4373 21.4926C66.0085 19.8232 66.1785 17.8206 66.1853 16.821L61.0819 16.804ZM36.4999 51.45C32.1411 51.45 25.7457 50.5592 20.5403 48.1656C15.3383 45.772 11.9179 42.2122 11.9179 37H6.8179C6.8179 45.0682 12.3463 50.0084 18.4119 52.7964C24.4639 55.5844 31.6345 56.55 36.4999 56.55V51.45ZM11.9179 37C11.9179 34.3208 11.7241 32.1142 11.9825 29.7648C12.2205 27.5718 12.8427 25.6236 14.3081 23.893L10.4151 20.595C8.1031 23.332 7.2259 26.3512 6.9131 29.2106C6.6173 31.9204 6.8179 34.8546 6.8179 37H11.9179ZM14.3081 23.893C14.899 23.2048 15.5689 22.5886 16.3039 22.057L13.2847 17.943C12.1672 18.7681 11.2107 19.6521 10.4151 20.595L14.3081 23.893ZM6.8179 16.821C6.8213 17.8206 6.9913 19.8232 7.5625 21.4926C7.8277 22.2746 8.3207 23.417 9.2965 24.199C9.8405 24.6342 10.5579 24.9776 11.4215 25.0218C12.2681 25.0626 13.0195 24.8076 13.6349 24.454L11.0883 20.034C11.3175 19.9416 11.5667 19.9102 11.8117 19.943C12.0566 19.9758 12.2889 20.0716 12.4857 20.221C12.6795 20.374 12.5741 20.3876 12.3871 19.847C12.0916 18.859 11.9337 17.8351 11.9179 16.804L6.8179 16.821Z" fill="white"/>
<path d="M39.3083 40.4C39.3083 40.9882 38.0809 41.4642 36.5679 41.4642C35.0549 41.4642 33.8241 40.9882 33.8241 40.4C33.8241 39.8118 35.0515 39.3392 36.5679 39.3392C38.0809 39.3392 39.3083 39.8152 39.3083 40.4ZM48.3999 32.2196C48.3999 33.685 47.6621 34.875 46.7543 34.875C45.8465 34.875 45.1087 33.685 45.1087 32.2196C45.1087 30.7542 45.8465 29.5642 46.7543 29.5642C47.6621 29.5642 48.3999 30.7576 48.3999 32.2196ZM27.9999 32.2196C27.9999 33.685 27.2621 34.875 26.3543 34.875C25.4465 34.875 24.7087 33.685 24.7087 32.2196C24.7087 30.7542 25.4465 29.5642 26.3543 29.5642C27.2621 29.5642 27.9999 30.7576 27.9999 32.2196Z" stroke="white" stroke-width="4"/>
<path d="M70.5 38.5946C68.8578 37.5304 61.728 34.875 58.9842 34.875M65.0158 47.0946C63.3702 46.0304 59.5316 43.375 56.7878 43.375M2.5 38.5946C4.1456 37.5304 11.272 34.875 14.0158 34.875M7.9842 47.0946C9.6298 46.0304 13.4684 43.375 16.2122 43.375" stroke="white" stroke-width="4" stroke-linecap="round"/>
</svg>
